<?xml version="1.0" encoding="UTF-8"?>
<svg id="Capa_2" data-name="Capa 2" xmlns="http://www.w3.org/2000/svg" viewBox="0 0 361.09 121.89">
	<g id="Layer_01" data-name="Layer 01">
		<g>
			<path fill="#FFFFFF" d="M356.8,101.1h-5.89c-.37,0-.75,0-1.12,0,0,0-.01,0-.02,0-.01,0-.03,0-.04,0-.06,0-.12,0-.18,0-.12,0-.25-.03-.37-.05-.26-.05-.5-.13-.74-.23-.52-.23-.98-.59-1.35-1.02-.39-.46-.67-1-.84-1.57-.08-.28-.14-.56-.18-.85-.02-.14-.03-.28-.03-.41,0-.03,0-.07,0-.1,0,0,0-.02,0-.03,0,0,0,0,0-.01,0-.49,0-.97,0-1.46v-27.2c0-.24,0-.47,0-.71,0-.32-.02-.65-.04-.97-.05-.81-.15-1.62-.31-2.41-.15-.73-.34-1.44-.6-2.13-.24-.65-.54-1.26-.9-1.85-.17-.28-.36-.55-.56-.82-.2-.25-.41-.49-.63-.72-.91-.9-2.01-1.49-3.25-1.8-.67-.17-1.36-.24-2.05-.26-.75-.02-1.48.04-2.22.21-1.44.32-2.68,1.01-3.75,2.01-.58.54-1.07,1.15-1.52,1.8-.47.7-.87,1.42-1.2,2.2-.73,1.67-1.12,3.46-1.29,5.26-.05.5-.08,1-.09,1.5,0,.13,0,.26,0,.39,0,.15,0,.3,0,.46v25.64c0,.29,0,.58,0,.87,0,.02,0,.03,0,.05,0,.07,0,.13,0,.2,0,.13-.02.27-.04.4-.04.28-.1.55-.18.82-.18.55-.45,1.06-.82,1.51-.36.42-.79.77-1.29,1-.23.11-.47.19-.72.24-.12.03-.24.04-.35.06-.06,0-.12.01-.17.01-.03,0-.06,0-.09,0-.01,0-.03,0-.04,0-.1,0-.2,0-.3,0h-7.14c-.08,0-.16,0-.25,0-.01,0-.03,0-.04,0-.06,0-.12,0-.17,0-.12,0-.24-.02-.35-.04-.25-.04-.48-.12-.72-.21-.51-.21-.95-.54-1.32-.95-.39-.43-.68-.94-.87-1.48-.09-.27-.16-.54-.21-.82-.02-.13-.04-.27-.05-.4,0-.07,0-.13-.01-.2,0-.03,0-.07,0-.1,0-.02,0-.03,0-.05,0,0,0-.02,0-.02,0-.21,0-.42,0-.63V20.41c0-.74,0-1.48,0-2.22,0,0,0,0,0,0,0-.01,0-.02,0-.03,0-.04,0-.08,0-.12,0-.08,0-.17.01-.25.01-.17.04-.34.07-.51.07-.35.18-.7.32-1.03.29-.66.75-1.24,1.33-1.67.52-.38,1.13-.61,1.78-.66.07,0,.15,0,.22,0,.04,0,.08,0,.11,0h7.22c.11,0,.21,0,.32,0,0,0,.02,0,.03,0,.02,0,.04,0,.05,0,.15,0,.3.02.44.04.31.05.62.15.9.28.5.24.94.59,1.29,1.01.37.44.64.96.81,1.51.08.27.14.54.18.82.02.13.03.27.03.4,0,.07,0,.13,0,.2,0,.13,0,.25,0,.38v22.2c0,.34,0,.69,0,1.03,0,.77-.02,1.53-.04,2.3-.01.5-.02.72-.03,1.23,0,.4-.02.8-.02,1.2,0,.2,0,.39,0,.59,0,.1,0,.19,0,.29,0,.05,0,.1,0,.14,0,.02,0,.05,0,.07,0,.01,0,.02,0,.04h0s0,.02,0,.02h.29s0,0,0,0c0,0,0,0,0,0,0,0,0,0,0,0,0,0,0-.02.01-.03,0-.02.02-.04.03-.06.02-.04.04-.08.06-.12.04-.08.07-.16.11-.23.15-.31.3-.61.46-.91,1.2-2.24,2.73-4.25,4.7-5.87.97-.8,1.96-1.44,3.09-1.98,1.13-.53,2.32-.91,3.55-1.14.65-.12,1.29-.21,1.95-.26.34-.03.68-.04,1.02-.05.46,0,.92,0,1.37.01,2,.08,3.97.45,5.84,1.21,1.77.72,3.33,1.75,4.7,3.09.35.34.68.69,1,1.07.33.38.63.77.92,1.18.6.84,1.13,1.71,1.59,2.62,1,1.96,1.69,4.06,2.14,6.21.25,1.19.42,2.38.54,3.59.13,1.3.19,2.6.19,3.91,0,.26,0,.53,0,.79v34.3c0,.61,0,1.23,0,1.84,0,0,0,0,0,.01,0,.02,0,.03,0,.05,0,.03,0,.07,0,.1,0,.14-.02.27-.03.4-.04.28-.1.56-.2.83-.2.57-.51,1.1-.93,1.54-.42.44-.92.79-1.49,1.03-.52.22-1.08.33-1.64.33Z" />
			<path fill="#FFFFFF" d="M298.59,37.85c.49,0,.97.11,1.42.32.5.23.94.58,1.29,1,.37.44.65.96.82,1.51.09.27.14.54.18.82.02.13.03.27.04.4,0,.07,0,.13,0,.2,0,0,0,.02,0,.02,0,0,0,0,0,.01,0,.7,0,1.4,0,2.11v50.03c0,.19,0,.38,0,.57,0,.17,0,.34,0,.51,0,.34-.01.68-.02,1.01-.02.65-.05,1.31-.1,1.96-.09,1.22-.23,2.44-.44,3.65-.19,1.11-.44,2.21-.75,3.29-.07.26-.15.51-.24.77-.08.25-.17.5-.26.74-.17.48-.36.96-.56,1.43-.38.91-.81,1.8-1.29,2.66-.46.83-.96,1.62-1.51,2.38-.27.37-.55.73-.84,1.09-.14.18-.29.35-.44.52-.04.04-.08.08-.11.13-.02.02-.04.04-.06.06,0,.01-.02.02-.03.03-.01.01-.02.02-.03.03-.08.09-.17.17-.25.26-1.79,1.79-3.85,3.2-6.17,4.22-.59.26-1.19.49-1.8.7-.62.21-1.25.4-1.88.57-1.31.35-2.64.59-3.99.76-1.42.18-2.85.26-4.28.26-2.53,0-5.09-.2-7.57-.73-2.23-.48-4.39-1.21-6.41-2.28-.96-.51-1.86-1.08-2.73-1.72-.85-.63-1.65-1.33-2.39-2.08-1.41-1.44-2.56-3.08-3.46-4.88-.23-.46-.44-.93-.63-1.4-.05-.11-.09-.23-.14-.34,0-.02-.01-.03-.02-.05-.02-.06-.05-.13-.07-.19-.04-.13-.08-.27-.11-.4-.06-.28-.1-.56-.12-.85-.03-.58.05-1.16.22-1.7.16-.51.42-1,.76-1.42.33-.42.74-.76,1.22-1.01.45-.23.94-.37,1.45-.38.03,0,.06,0,.09,0,.12,0,.23,0,.35,0h6.89c.1,0,.19,0,.29,0,.03,0,.06,0,.09,0,.12,0,.24.02.36.03.25.04.49.1.73.2.49.19.93.5,1.3.88.19.19.35.4.5.63.04.06.07.11.1.17.04.06.07.13.11.19.34.6.76,1.14,1.24,1.63.24.25.5.49.77.71.3.24.56.43.89.62.7.4,1.46.68,2.24.87.93.23,1.89.34,2.85.38.27.01.54.02.81.02.32,0,.65,0,.97-.02.62-.03,1.23-.1,1.83-.21,1.01-.19,2-.5,2.91-.99.85-.45,1.6-1.04,2.24-1.76.16-.18.31-.37.46-.56.15-.19.28-.39.42-.6.27-.42.5-.86.71-1.31.45-.99.75-2.03.94-3.1.21-1.17.29-2.36.29-3.55v-.45c0-.48,0-.97,0-1.45,0-1.07.02-2.14.05-3.21.03-.92.06-1.83.12-2.75.02-.4.05-.8.09-1.2,0-.09.02-.19.02-.28,0-.02,0-.05,0-.07,0-.01,0-.02,0-.03,0,0,0-.01,0-.02,0,0,0,0,0,0,0,0,0,0,0,0,0,0,0,0,0,0h-.39s0,0,0,0c0,0,0,0,0,.01,0,0,0,.02-.01.02,0,.02-.02.03-.02.05-.07.13-.13.26-.2.39-.13.26-.27.51-.42.76-.28.48-.57.95-.89,1.41-2.36,3.44-5.54,5.66-9.74,6.3-.73.11-1.45.17-2.18.19-.43,0-.86,0-1.3-.01-.71-.03-1.42-.1-2.12-.21-1.41-.22-2.78-.59-4.11-1.11-.34-.13-.67-.27-1-.42-.33-.15-.66-.31-.98-.48-.65-.34-1.28-.71-1.88-1.12-1.25-.84-2.39-1.82-3.42-2.92-.54-.57-1.05-1.17-1.54-1.79-.5-.64-.96-1.31-1.4-2-.92-1.46-1.7-3.01-2.35-4.61-.34-.84-.67-1.74-.95-2.61-.3-.92-.55-1.85-.76-2.8-.46-2.02-.73-4.07-.87-6.14-.07-1.07-.11-2.13-.11-3.2,0-1.04.02-2.09.08-3.13.11-1.97.33-3.94.69-5.89.17-.93.37-1.85.6-2.76.11-.45.24-.89.37-1.33.13-.43.26-.86.4-1.29.54-1.62,1.19-3.2,1.97-4.72.37-.71.77-1.41,1.2-2.09.21-.33.43-.66.65-.98.22-.32.45-.62.69-.93.91-1.17,1.92-2.25,3.04-3.22.54-.47,1.11-.9,1.7-1.31.29-.2.59-.4.89-.58.3-.19.61-.36.92-.53,1.24-.67,2.54-1.18,3.9-1.52,1.3-.33,2.61-.5,3.95-.54.71-.02,1.48,0,2.18.05s1.4.14,2.1.26c1.29.24,2.55.61,3.75,1.16.56.26,1.14.57,1.65.9.54.35,1.04.74,1.51,1.17,1.03.93,1.88,2.03,2.61,3.21.41.66.77,1.34,1.1,2.04.09.18.17.37.25.56.04.09.08.19.12.28.01.02.02.05.03.07,0,0,0,0,0,0h.19s0,0,0,0h0v-3.52c0-.09,0-.18,0-.27,0-.08,0-.15.01-.23.01-.16.03-.31.06-.47.11-.65.35-1.28.73-1.83.37-.53.85-.98,1.43-1.28.26-.13.54-.23.83-.3.14-.03.27-.05.41-.06.07,0,.13,0,.2-.01.02,0,.03,0,.05,0,0,0,.02,0,.02,0,0,0,0,0,.01,0,.21,0,.42,0,.62,0h6.33ZM277.08,82.51c1.93,0,3.58-.41,4.97-1.23,1.38-.82,2.54-1.97,3.47-3.46.93-1.48,1.61-3.2,2.03-5.16.42-1.95.63-4.1.63-6.45,0-4.61-.93-8.46-2.8-11.54-1.86-3.09-4.66-4.63-8.39-4.63-3.34,0-5.98,1.47-7.91,4.4-1.93,2.93-2.89,6.9-2.89,11.9s.96,8.85,2.89,11.78c1.93,2.93,4.6,4.4,8.01,4.4Z" />
			<path fill="#FFFFFF" d="M166.15,15.69V3.25c0-1.91,1.84-3.28,3.58-2.48,9.68,4.44,16.43,14.48,16.43,26.16v47.59c0,.12,0,.25,0,.37-.14,11.52-6.85,21.4-16.43,25.79-1.73.8-3.58-.57-3.58-2.48v-12.44c0-.85.4-1.65.99-2.26,2.23-2.29,3.61-5.46,3.61-8.97V26.92c0-3.51-1.38-6.68-3.61-8.97-.6-.61-.99-1.41-.99-2.26Z" />
			<path fill="#FFFFFF" d="M102.95,27.64c0-6.74-5.46-12.2-12.2-12.2s-12.2,5.46-12.2,12.2v69.71c0,1.58-1.28,2.86-2.86,2.86h-9.72c-1.58,0-2.86-1.28-2.86-2.86,0-3.81,0-7.62,0-11.43V27.64c0-15.26,12.37-27.64,27.64-27.64s27.64,12.37,27.64,27.64v61.14c0,2.86,0,5.71,0,8.57,0,1.58-1.28,2.86-2.86,2.86h-9.72c-1.58,0-2.86-1.28-2.86-2.86V27.64Z" />
			<path fill="#FFFFFF" d="M150.87,15.69c0,.85-.4,1.65-.99,2.26-2.23,2.29-3.61,5.46-3.61,8.97v47.59c0,3.51,1.38,6.68,3.61,8.97.6.61.99,1.41.99,2.26v12.44c0,1.91-1.84,3.28-3.58,2.48-9.58-4.39-16.29-14.27-16.43-25.79,0-.12,0-.25,0-.37V26.92c0-11.68,6.75-21.72,16.43-26.16,1.73-.8,3.58.57,3.58,2.48v12.44Z" />
			<path fill="#FFFFFF" d="M25.3,37.72c16.45,0,25.3,10.39,25.3,24.4v6.72c0,1.34-.93,2.5-2.24,2.79-10.38,2.3-20.77,4.6-31.15,6.91-1.43.32-2.44,1.69-1.97,3.07,1.29,3.8,4.53,5.96,10.05,5.96,4.17,0,7.04-1.35,8.75-3.68.66-.9,1.65-1.59,2.77-1.59h9.84c1.79,0,3.15,1.64,2.59,3.34-3.06,9.28-11.24,15.49-23.95,15.49C8.86,101.11,0,90.72,0,76.72v-14.6c0-14.01,8.86-24.4,25.3-24.4ZM25.3,51.27c-7.4,0-10.71,4.25-10.71,10.66,0,1.73,1.6,3.01,3.28,2.64l15.64-3.47c1.39-.31,2.39-1.61,2.01-2.99-1.15-4.23-4.43-6.84-10.24-6.84Z" />
			<path fill="#FFFFFF" d="M230.37,101.1c-.26,0-.51-.07-.74-.2-.24-.14-.43-.35-.55-.6-.06-.12-.1-.24-.12-.37-.01-.06-.02-.12-.02-.18,0-.01,0-.03,0-.04,0-.06,0-.12,0-.17v-1.51c0-.43,0-.86,0-1.29,0-.03,0-.06,0-.09-.02-.27-.11-.52-.27-.74-.31-.44-.85-.66-1.38-.58-.27.04-.52.16-.72.34-.05.04-.09.09-.14.14-.01.01-.02.02-.03.04,0,0,0,.01-.01.02,0,0,0,0,0,0-.07.09-.15.19-.22.28-.51.64-1.08,1.24-1.7,1.77-.56.48-1.16.91-1.81,1.26-.31.17-.63.31-.95.45-.33.14-.67.27-1,.38-.71.24-1.44.44-2.17.59-1.64.35-3.34.49-5.01.5-1.37.01-2.77-.06-4.13-.24-1.28-.17-2.55-.44-3.77-.84-1.12-.37-2.2-.84-3.22-1.45-.49-.29-.95-.61-1.4-.95-.22-.17-.44-.35-.65-.53-.1-.09-.21-.19-.31-.28-.05-.05-.1-.1-.15-.14-.01-.01-.03-.02-.04-.04,0,0-.01-.01-.02-.02,0,0-.01-.01-.02-.02-.02-.02-.03-.05-.05-.07-1.17-1.61-2.09-3.36-2.78-5.22-.76-2.04-1.23-4.17-1.5-6.33-.15-1.19-.24-2.38-.28-3.58,0-.31-.02-.63-.02-.94,0-.17,0-.34,0-.51v-36.51c0-.47,0-.94,0-1.41,0,0,0,0,0-.01,0,0,0-.02,0-.02,0-.02,0-.03,0-.05,0-.07,0-.13,0-.2,0-.13.02-.27.04-.4.04-.28.1-.55.19-.81.18-.54.46-1.06.83-1.49.36-.42.79-.76,1.29-.99.23-.11.47-.18.71-.24.12-.02.23-.04.35-.06.06,0,.12-.01.17-.01.03,0,.06,0,.09,0,.01,0,.03,0,.04,0,0,0,.01,0,.02,0,.04,0,.08,0,.12,0h6.4c.38,0,.75,0,1.13,0,0,0,.01,0,.02,0,.01,0,.03,0,.04,0,.06,0,.11,0,.17,0,.12,0,.23.02.35.04.25.04.48.12.71.21.5.21.95.54,1.31.94.39.43.68.93.87,1.47.09.27.16.53.21.81.02.13.04.27.05.4.02.3.02.59.02.89v33.35c0,.22,0,.44,0,.65,0,.07,0,.14,0,.21,0,.28.01.56.02.84.04,1.01.16,2.02.37,3.01.14.63.31,1.25.54,1.86.21.55.46,1.08.78,1.58.29.47.62.9,1.01,1.29.37.38.78.71,1.23.98.96.59,2.02.9,3.12,1.02.31.03.61.05.92.06.35,0,.7,0,1.05-.03.68-.05,1.34-.17,1.99-.38,1.27-.4,2.37-1.07,3.3-2.01.5-.5.92-1.05,1.31-1.64.4-.62.74-1.26,1.04-1.94.63-1.46,1.01-3.01,1.2-4.58.11-.88.16-1.76.16-2.65,0-.08,0-.16,0-.24v-30.24c0-.55,0-1.1,0-1.65,0,0,0,0,0-.01,0,0,0-.02,0-.03,0-.07,0-.14,0-.21,0-.15.02-.29.04-.44.04-.31.12-.6.22-.89.21-.59.53-1.14.97-1.6.41-.42.91-.75,1.47-.93.25-.08.51-.14.78-.16.06,0,.13,0,.19,0,.02,0,.03,0,.05,0,0,0,.02,0,.02,0,.22,0,.43,0,.65,0h5.91c.29,0,.59,0,.88,0,.02,0,.03,0,.05,0,.13,0,.25.01.38.03.47.06.92.23,1.33.47.45.27.83.64,1.14,1.06.32.44.55.93.69,1.45.07.25.12.5.14.76.01.12.02.25.02.37,0,.03,0,.06,0,.09,0,0,0,.02,0,.02,0,0,0,0,0,.01,0,.28,0,.57,0,.85v53.47c0,.16,0,.31,0,.47,0,0,0,.02,0,.02,0,.07,0,.13,0,.2,0,.14-.02.27-.04.41-.04.28-.1.56-.19.83-.18.56-.46,1.08-.84,1.53-.36.42-.81.77-1.32,1-.24.1-.48.18-.73.23-.12.02-.24.04-.36.05-.06,0-.12,0-.18.01-.03,0-.06,0-.09,0,0,0,0,0-.01,0-.31,0-.63,0-.94,0h-8.25Z" />
		</g>
	</g>
</svg>
