<?xml version="1.0" encoding="UTF-8"?>
<svg id="Layer_1" data-name="Layer 1" xmlns="http://www.w3.org/2000/svg" xmlns:xlink="http://www.w3.org/1999/xlink" viewBox="0 0 652 359">
  <defs>
    <style>
      .cls-1 {
        fill: url(#radial-gradient-2);
        fill-rule: evenodd;
      }

      .cls-2 {
        fill: url(#radial-gradient);
      }

      .cls-3 {
        fill: url(#radial-gradient-3);
      }

      .cls-4 {
        fill: url(#radial-gradient-4);
      }
    </style>
    <radialGradient id="radial-gradient" cx="317.6265" cy="179.347" fx="278.0648" fy="179.347" r="172.9842" gradientTransform="translate(0 -22.1486) scale(1 1.1235)" gradientUnits="userSpaceOnUse">
      <stop offset="0" stop-color="#e30026"/>
      <stop offset="1" stop-color="#000"/>
    </radialGradient>
    <radialGradient id="radial-gradient-2" cx="88.5575" cy="246.9375" fx="88.5575" fy="246.9375" r="123.9576" gradientUnits="userSpaceOnUse">
      <stop offset="0" stop-color="#e30026"/>
      <stop offset="1" stop-color="#000"/>
    </radialGradient>
    <radialGradient id="radial-gradient-3" cx="493.016" cy="181.4999" fx="493.016" fy="181.4999" r="167.5027" gradientUnits="userSpaceOnUse">
      <stop offset="0" stop-color="#e30026"/>
      <stop offset="1" stop-color="#000"/>
    </radialGradient>
    <radialGradient id="radial-gradient-4" cx="616.516" cy="181.4998" fx="616.516" fy="181.4998" r="166.0209" xlink:href="#radial-gradient-2"/>
  </defs>
  <path class="cls-2" d="M360.315,100.725v243.969c0,5.523,4.477,10,10,10h34.03c5.523,0,9.999-4.476,10-9.998l.006-30.002V100.725c0-53.4199-43.305-96.725-96.725-96.725s-96.724,43.305-96.724,96.725v203.969l.006,40.001c.001,5.523,4.477,9.999,10,9.999h34.03c5.523,0,10-4.477,10-10V100.725c0-23.5767,19.112-42.6889,42.688-42.6889s42.689,19.1122,42.689,42.6889Z"/>
  <path class="cls-1" d="M88.5576,136c57.5624,0,88.5574,36.367,88.5574,85.384v23.514c0,4.689-3.258,8.748-7.835,9.763l-109.0154,24.17c-5.0024,1.109-8.5333,5.899-6.882,10.749,4.5221,13.283,15.8697,20.859,35.175,20.859,14.5944,0,24.6394-4.725,30.6274-12.87,2.327-3.165,5.763-5.569,9.692-5.569h34.422c6.263,0,11.024,5.725,9.063,11.673-10.71,32.487-39.324,54.202-83.8044,54.202C30.9954,357.875.0001,321.508,0,272.491v-51.107c.0001-49.017,30.9954-85.384,88.5576-85.384ZM88.5576,183.436c-25.886,0-37.4668,14.863-37.4668,37.316,0,6.043,5.594,10.532,11.4934,9.224l54.7518-12.138c4.872-1.08,8.355-5.64,7.049-10.457-4.011-14.792-15.513-23.945-35.8274-23.945Z"/>
  <path class="cls-3" d="M528.032,58.9198c0,2.9884-1.386,5.7734-3.473,7.9123-7.809,8.0033-12.648,19.1141-12.648,31.3974v166.5445c0,12.283,4.839,23.393,12.648,31.396,2.087,2.139,3.473,4.924,3.473,7.912v43.542c0,6.679-6.445,11.469-12.517,8.686-33.518-15.363-57.014-49.929-57.507-90.243l-.008-1.293V98.2295c0-40.8676,23.639-76.0122,57.515-91.5397,6.072-2.7832,12.517,2.007,12.517,8.6865v43.5435Z"/>
  <path class="cls-4" d="M581.5,58.9197c0,2.9884,1.386,5.7734,3.473,7.9123,7.809,8.0032,12.649,19.1141,12.649,31.3974v166.5436c0,12.284-4.84,23.394-12.649,31.397-2.087,2.139-3.473,4.924-3.473,7.912v43.542c0,6.679,6.445,11.469,12.517,8.686,33.5179-15.363,57.015-49.929,57.507-90.243l.008-1.294V98.2294c0-40.8675-23.639-76.0122-57.515-91.5397-6.072-2.7832-12.517,2.007-12.517,8.6865v43.5435Z"/>
</svg>