<svg width="503" height="150" viewBox="0 0 503 150" fill="none" xmlns="http://www.w3.org/2000/svg">
<path d="M128.5 35.9204L128.5 118.583C128.5 122.952 132.041 126.493 136.409 126.493H139.86C144.228 126.493 147.769 122.953 147.769 118.585L147.77 112.228L147.77 35.9204C147.77 16.8695 132.327 1.42578 113.276 1.42578C94.225 1.42578 78.7813 16.8695 78.7813 35.9204L78.7812 108.661L78.7827 118.585C78.7834 122.952 82.3243 126.493 86.6921 126.493H90.1426C94.5108 126.493 98.052 122.952 98.052 118.583L98.052 35.9204C98.052 27.5125 104.868 20.6965 113.276 20.6965C121.684 20.6965 128.5 27.5125 128.5 35.9204Z" fill="url(#paint0_linear_584_4033)" fill-opacity="0.18"/>
<path d="M188.491 18.2493C188.491 20.613 187.337 22.7849 185.921 24.6775C183.928 27.3413 182.742 30.686 182.742 34.3181V93.7122C182.742 97.3443 183.928 100.689 185.921 103.352C187.337 105.245 188.491 107.417 188.491 109.781V117.449C188.491 122.732 183.337 126.482 178.979 123.496C169.777 117.191 163.668 106.427 163.518 94.1736L163.516 93.7122V34.3181C163.516 21.8737 169.662 10.9173 178.979 4.53337C183.337 1.54718 188.491 5.29677 188.491 10.5799V18.2493Z" fill="url(#paint1_linear_584_4033)" fill-opacity="0.18"/>
<path d="M207.704 10.7981C207.704 5.48021 212.919 1.73523 217.265 4.80027C226.367 11.2198 232.345 22.0452 232.345 34.3181V93.7122L232.342 94.1736C232.194 106.256 226.253 116.891 217.265 123.23C212.919 126.295 207.704 122.55 207.704 117.232V109.359C207.704 107.074 208.784 104.964 210.118 103.108C212.003 100.486 213.119 97.2343 213.119 93.7122V34.3181C213.119 30.7959 212.003 27.5443 210.118 24.9216C208.784 23.0664 207.704 20.9558 207.704 18.6711V10.7981Z" fill="url(#paint2_linear_584_4033)" fill-opacity="0.18"/>
<path fill-rule="evenodd" clip-rule="evenodd" d="M31.5821 48.5C52.1103 48.5 63.1641 61.4695 63.1641 78.9502V83.8504C63.1641 87.5589 60.5874 90.7695 56.9668 91.5723L25.3156 98.5898C21.359 99.467 18.3215 103.567 20.9124 106.684C23.073 109.282 26.5779 110.71 31.5821 110.71C35.4411 110.71 38.4083 109.783 40.5551 108.12C43.0116 106.217 45.6565 104.134 48.7638 104.134H53.0015C57.9553 104.134 61.77 108.748 59.3988 113.098C54.5605 121.972 45.137 127.627 31.5821 127.627C11.0538 127.627 3.82412e-05 114.657 0 97.1765V78.9502C3.82412e-05 61.4695 11.0538 48.5 31.5821 48.5ZM31.5821 65.4168C22.3504 65.4168 18.2204 70.7176 18.2204 78.7249C18.2204 80.8798 20.2154 82.481 22.3192 82.0146L38.154 78.5041C42.0077 77.6498 44.9995 73.8168 42.8501 70.5061C40.7658 67.2957 37.0783 65.4168 31.5821 65.4168Z" fill="url(#paint3_linear_584_4033)" fill-opacity="0.18"/>
<path d="M317.541 122.859H297.774V113.806H297.321C294.505 117.628 291.386 120.445 287.966 122.256C284.647 124.067 280.371 124.972 275.14 124.972C266.691 124.972 260.102 122.457 255.374 117.427C250.646 112.398 248.282 105.607 248.282 97.0569V45.4521H268.652V93.5864C268.652 102.942 272.927 107.619 281.478 107.619C286.206 107.619 289.978 106.01 292.795 102.791C295.611 99.5718 297.02 95.3468 297.02 90.1159V45.4521H317.541V122.859ZM364.916 149.265C354.454 149.265 346.055 147.153 339.717 142.928C333.48 138.703 329.809 132.768 328.702 125.123H349.073C351.084 130.857 356.265 133.724 364.614 133.724C376.082 133.724 381.816 128.342 381.816 117.578V109.128H381.363C376.032 115.164 369.292 118.182 361.144 118.182C351.99 118.182 343.992 114.812 337.152 108.072C330.412 101.332 327.042 92.3793 327.042 81.2133C327.042 69.7456 330.161 60.5915 336.398 53.7511C342.634 46.8101 350.682 43.3396 360.54 43.3396C369.896 43.3396 377.038 46.7598 381.967 53.6002H382.269V45.4521H402.035V116.975C402.035 127.034 398.967 134.88 392.831 140.514C386.594 146.348 377.289 149.265 364.916 149.265ZM364.614 101.735C370.751 101.735 375.328 99.773 378.345 95.8498C381.363 91.9266 382.872 86.8969 382.872 80.7607C382.872 74.725 381.263 69.7456 378.044 65.8224C374.925 61.7986 370.398 59.7868 364.463 59.7868C359.233 59.7868 355.008 61.6981 351.789 65.5206C348.67 69.3432 347.111 74.4735 347.111 80.9116C347.111 87.4502 348.67 92.5805 351.789 96.3025C355.008 99.9239 359.283 101.735 364.614 101.735ZM435.77 14.972V55.5618H436.223C439.14 51.3368 442.309 48.2687 445.729 46.3574C449.25 44.3455 453.575 43.3396 458.706 43.3396C466.653 43.3396 473.091 46.0556 478.02 51.4877C482.949 56.8192 485.414 63.7602 485.414 72.3107V122.859H464.892V75.3286C464.892 71.1036 463.685 67.6834 461.271 65.068C458.957 62.4525 455.688 61.1448 451.463 61.1448C446.936 61.1448 443.164 62.8046 440.146 66.1242C437.229 69.4438 435.77 73.7191 435.77 78.95V122.859H415.249V14.972H435.77Z" fill="url(#paint4_linear_584_4033)" fill-opacity="0.18"/>
<defs>
<linearGradient id="paint0_linear_584_4033" x1="113.276" y1="1.42578" x2="113.276" y2="126.493" gradientUnits="userSpaceOnUse">
<stop stop-color="white"/>
<stop offset="1" stop-color="#999999"/>
</linearGradient>
<linearGradient id="paint1_linear_584_4033" x1="197.93" y1="0" x2="197.93" y2="128.029" gradientUnits="userSpaceOnUse">
<stop stop-color="white"/>
<stop offset="1" stop-color="#999999"/>
</linearGradient>
<linearGradient id="paint2_linear_584_4033" x1="197.93" y1="0" x2="197.93" y2="128.029" gradientUnits="userSpaceOnUse">
<stop stop-color="white"/>
<stop offset="1" stop-color="#999999"/>
</linearGradient>
<linearGradient id="paint3_linear_584_4033" x1="31.5821" y1="48.5" x2="31.5821" y2="127.627" gradientUnits="userSpaceOnUse">
<stop stop-color="white"/>
<stop offset="1" stop-color="#999999"/>
</linearGradient>
<linearGradient id="paint4_linear_584_4033" x1="372.38" y1="45.8594" x2="372.38" y2="119.322" gradientUnits="userSpaceOnUse">
<stop stop-color="white"/>
<stop offset="1" stop-color="#999999"/>
</linearGradient>
</defs>
</svg>
